P3
9 9 255
0 0 0 
0 255 0 
139 69 19 
0 255 0 
139 69 19 
0 255 0 
139 69 19 
0 255 0 
139 69 19 
0 255 0 
139 69 19 
0 255 0 
139 69 19 
0 255 0 
139 69 19 
0 255 0 
139 69 19 
0 255 0 
139 69 19 
0 255 0 
139 69 19 
0 255 0 
139 69 19 
0 255 0 
139 69 19 
0 255 0 
139 69 19 
0 255 0 
139 69 19 
0 255 0 
139 69 19 
0 255 0 
139 69 19 
0 255 0 
139 69 19 
0 255 0 
139 69 19 
0 255 0 
139 69 19 
0 255 0 
139 69 19 
0 255 0 
139 69 19 
0 255 0 
139 69 19 
0 255 0 
139 69 19 
0 255 0 
139 69 19 
0 255 0 
139 69 19 
0 255 0 
139 69 19 
0 255 0 
139 69 19 
0 255 0 
139 69 19 
0 255 0 
139 69 19 
0 255 0 
139 69 19 
0 255 0 
139 69 19 
0 255 0 
139 69 19 
0 255 0 
139 69 19 
0 255 0 
139 69 19 
0 255 0 
139 69 19 
0 255 0 
139 69 19 
0 255 0 
139 69 19 
0 255 0 
139 69 19 
0 255 0 
139 69 19 
0 255 0 
139 69 19 
