P3
9 9 255
0 0 0 
0 255 0 
173 255 47 
0 255 0 
173 255 47 
0 255 0 
173 255 47 
0 255 0 
173 255 47 
0 255 0 
173 255 47 
0 255 0 
173 255 47 
0 255 0 
173 255 47 
0 255 0 
173 255 47 
0 255 0 
173 255 47 
0 255 0 
173 255 47 
0 255 0 
173 255 47 
0 255 0 
173 255 47 
0 255 0 
173 255 47 
0 255 0 
173 255 47 
0 255 0 
173 255 47 
0 255 0 
173 255 47 
0 255 0 
173 255 47 
0 255 0 
173 255 47 
0 255 0 
173 255 47 
0 255 0 
173 255 47 
0 255 0 
173 255 47 
0 255 0 
173 255 47 
0 255 0 
173 255 47 
0 255 0 
173 255 47 
0 255 0 
173 255 47 
0 255 0 
173 255 47 
0 255 0 
173 255 47 
0 255 0 
173 255 47 
0 255 0 
173 255 47 
0 255 0 
173 255 47 
0 255 0 
173 255 47 
0 255 0 
173 255 47 
0 255 0 
173 255 47 
0 255 0 
173 255 47 
0 255 0 
173 255 47 
0 255 0 
173 255 47 
0 255 0 
173 255 47 
0 255 0 
173 255 47 
0 255 0 
173 255 47 
0 255 0 
173 255 47 
