P3
9 9 255
0 0 0 
255 0 0 
255 105 180 
255 0 0 
255 105 180 
255 0 0 
255 105 180 
255 0 0 
255 105 180 
255 0 0 
255 105 180 
255 0 0 
255 105 180 
255 0 0 
255 105 180 
255 0 0 
255 105 180 
255 0 0 
255 105 180 
255 0 0 
255 105 180 
255 0 0 
255 105 180 
255 0 0 
255 105 180 
255 0 0 
255 105 180 
255 0 0 
255 105 180 
255 0 0 
255 105 180 
255 0 0 
255 105 180 
255 0 0 
255 105 180 
255 0 0 
255 105 180 
255 0 0 
255 105 180 
255 0 0 
255 105 180 
255 0 0 
255 105 180 
255 0 0 
255 105 180 
255 0 0 
255 105 180 
255 0 0 
255 105 180 
255 0 0 
255 105 180 
255 0 0 
255 105 180 
255 0 0 
255 105 180 
255 0 0 
255 105 180 
255 0 0 
255 105 180 
255 0 0 
255 105 180 
255 0 0 
255 105 180 
255 0 0 
255 105 180 
255 0 0 
255 105 180 
255 0 0 
255 105 180 
255 0 0 
255 105 180 
255 0 0 
255 105 180 
255 0 0 
255 105 180 
255 0 0 
255 105 180 
255 0 0 
255 105 180 
255 0 0 
255 105 180 
