P3
9 9 255
0 0 0 
255 255 0 
255 250 205 
255 255 0 
255 250 205 
255 255 0 
255 250 205 
255 255 0 
255 250 205 
255 255 0 
255 250 205 
255 255 0 
255 250 205 
255 255 0 
255 250 205 
255 255 0 
255 250 205 
255 255 0 
255 250 205 
255 255 0 
255 250 205 
255 255 0 
255 250 205 
255 255 0 
255 250 205 
255 255 0 
255 250 205 
255 255 0 
255 250 205 
255 255 0 
255 250 205 
255 255 0 
255 250 205 
255 255 0 
255 250 205 
255 255 0 
255 250 205 
255 255 0 
255 250 205 
255 255 0 
255 250 205 
255 255 0 
255 250 205 
255 255 0 
255 250 205 
255 255 0 
255 250 205 
255 255 0 
255 250 205 
255 255 0 
255 250 205 
255 255 0 
255 250 205 
255 255 0 
255 250 205 
255 255 0 
255 250 205 
255 255 0 
255 250 205 
255 255 0 
255 250 205 
255 255 0 
255 250 205 
255 255 0 
255 250 205 
255 255 0 
255 250 205 
255 255 0 
255 250 205 
255 255 0 
255 250 205 
255 255 0 
255 250 205 
255 255 0 
255 250 205 
255 255 0 
255 250 205 
255 255 0 
255 250 205 
255 255 0 
255 250 205 
